<svg width="22" height="22" viewBox="0 0 22 22" fill="none" xmlns="http://www.w3.org/2000/svg">
<circle cx="11" cy="11" r="11" fill="#65ED6E"/>
<path d="M10.6404 14.6961L15.0778 10.2586C14.3313 9.94679 13.6533 9.49139 13.0823 8.91829C12.5089 8.34714 12.0533 7.66893 11.7414 6.92216L7.30392 11.3596C6.95773 11.7058 6.78433 11.8792 6.63554 12.07C6.45998 12.2953 6.30931 12.5389 6.18615 12.7966C6.08236 13.0149 6.00496 13.2477 5.85017 13.7121L5.033 16.1618C4.99539 16.274 4.98981 16.3944 5.01688 16.5096C5.04396 16.6247 5.10262 16.7301 5.18627 16.8137C5.26993 16.8974 5.37525 16.956 5.49041 16.9831C5.60557 17.0102 5.726 17.0046 5.83817 16.967L8.28788 16.1498C8.75286 15.995 8.98505 15.9176 9.20345 15.8138C9.46224 15.6906 9.70443 15.5409 9.93002 15.3645C10.1208 15.2157 10.2942 15.0423 10.6404 14.6961ZM16.309 9.02749C16.7514 8.58504 17 7.98496 17 7.35925C17 6.73354 16.7514 6.13345 16.309 5.69101C15.8665 5.24856 15.2665 5 14.6408 5C14.015 5 13.415 5.24856 12.9725 5.69101L12.4403 6.22319L12.4631 6.28979C12.7253 7.04023 13.1545 7.72133 13.7183 8.28171C14.2954 8.86238 15.0004 9.30002 15.7768 9.55967L16.309 9.02749Z" fill="white"/>
</svg>
