<svg width="28" height="28" viewBox="0 0 28 28" fill="none" xmlns="http://www.w3.org/2000/svg">
<path d="M8.16667 10.5007L12.5417 14.0007C12.9555 14.332 13.4699 14.5125 14 14.5125C14.5301 14.5125 15.0445 14.332 15.4583 14.0007L19.8333 10.5007M24.5 19.834V8.16732C24.5 7.54848 24.2542 6.95499 23.8166 6.5174C23.379 6.07982 22.7855 5.83398 22.1667 5.83398H5.83333C5.21449 5.83398 4.621 6.07982 4.18342 6.5174C3.74583 6.95499 3.5 7.54848 3.5 8.16732V19.834C3.5 20.4528 3.74583 21.0463 4.18342 21.4839C4.621 21.9215 5.21449 22.1673 5.83333 22.1673H22.1667C22.7855 22.1673 23.379 21.9215 23.8166 21.4839C24.2542 21.0463 24.5 20.4528 24.5 19.834Z" stroke="#4192FF" stroke-width="2" stroke-linecap="round" stroke-linejoin="round"/>
</svg>
