<svg width="156" height="41" viewBox="0 0 156 41" fill="none" xmlns="http://www.w3.org/2000/svg">
<path d="M115.005 20.46C115.005 16.4267 115.793 12.87 117.37 9.79C118.947 6.71 121.238 4.30834 124.245 2.585C127.252 0.861667 130.9 0 135.19 0C139.443 0 143.073 0.861667 146.08 2.585C149.123 4.30834 151.433 6.71 153.01 9.79C154.587 12.87 155.375 16.4267 155.375 20.46C155.375 24.4933 154.587 28.05 153.01 31.13C151.433 34.21 149.123 36.6117 146.08 38.335C143.073 40.0583 139.443 40.92 135.19 40.92C130.9 40.92 127.252 40.0767 124.245 38.39C121.238 36.6667 118.947 34.265 117.37 31.185C115.793 28.105 115.005 24.53 115.005 20.46ZM124.96 20.46C124.96 22.8433 125.327 24.97 126.06 26.84C126.83 28.6733 127.967 30.1033 129.47 31.13C131.01 32.1567 132.917 32.67 135.19 32.67C137.463 32.67 139.352 32.1567 140.855 31.13C142.358 30.1033 143.477 28.6733 144.21 26.84C144.98 24.97 145.365 22.8433 145.365 20.46C145.365 18.0767 144.98 15.9683 144.21 14.135C143.477 12.265 142.358 10.8167 140.855 9.79C139.352 8.76334 137.463 8.25 135.19 8.25C132.917 8.25 131.01 8.76334 129.47 9.79C127.967 10.8167 126.83 12.265 126.06 14.135C125.327 15.9683 124.96 18.0767 124.96 20.46Z" fill="url(#paint0_linear_302_161)"/>
<path d="M87.2803 40.2602V0.660156H97.0703V31.7902H112.14V40.2602H87.2803Z" fill="url(#paint1_linear_302_161)"/>
<path d="M45.708 40.2607L50.108 14.3007C50.5847 11.4407 51.3547 9.09404 52.418 7.2607C53.4813 5.42737 54.8013 3.99737 56.378 2.9707C57.9913 1.94404 59.8797 1.22904 62.043 0.825706C64.2063 0.422371 66.6263 0.220703 69.303 0.220703C70.843 0.220703 72.5113 0.31237 74.308 0.495703C76.1047 0.679036 77.7363 0.935703 79.203 1.2657L79.313 1.9257C79.1663 2.58571 79.0563 3.4657 78.983 4.5657C78.9463 5.6657 78.9097 6.78404 78.873 7.92071C78.873 9.05737 78.873 9.99237 78.873 10.7257V40.2607H69.138V11.7157C69.138 10.6524 69.1747 9.6807 69.248 8.8007C69.358 7.88404 69.4863 7.05904 69.633 6.3257L70.898 8.69071C70.4947 8.58071 69.9447 8.50737 69.248 8.47071C68.588 8.39737 67.9647 8.3607 67.378 8.3607C65.6547 8.3607 64.2797 8.59904 63.253 9.0757C62.2263 9.51571 61.438 10.194 60.888 11.1107C60.3747 12.0274 59.9897 13.2007 59.733 14.6307L55.498 40.2607H45.708ZM52.748 30.1407V22.3307H73.648V30.1407H52.748Z" fill="url(#paint2_linear_302_161)"/>
<path d="M0 40.2602V0.660156H8.25L21.945 23.1552L17.93 23.2102L31.405 0.660156H39.655V40.2602H29.92V14.6852L31.9 15.2352L22.165 31.4052H17.49L7.755 15.4552L9.79 14.9052V40.2602H0Z" fill="url(#paint3_linear_302_161)"/>
<defs>
<linearGradient id="paint0_linear_302_161" x1="77.3199" y1="-9.73999" x2="77.3199" y2="45.26" gradientUnits="userSpaceOnUse">
<stop stop-color="#4192FF"/>
<stop offset="1" stop-color="#0550E4"/>
</linearGradient>
<linearGradient id="paint1_linear_302_161" x1="77.32" y1="-9.73984" x2="77.32" y2="45.2602" gradientUnits="userSpaceOnUse">
<stop stop-color="#4192FF"/>
<stop offset="1" stop-color="#0550E4"/>
</linearGradient>
<linearGradient id="paint2_linear_302_161" x1="77.3204" y1="-9.73929" x2="77.3204" y2="45.2607" gradientUnits="userSpaceOnUse">
<stop stop-color="#4192FF"/>
<stop offset="1" stop-color="#0550E4"/>
</linearGradient>
<linearGradient id="paint3_linear_302_161" x1="77.32" y1="-9.73984" x2="77.32" y2="45.2602" gradientUnits="userSpaceOnUse">
<stop stop-color="#4192FF"/>
<stop offset="1" stop-color="#0550E4"/>
</linearGradient>
</defs>
</svg>
