<svg width="142" height="38" viewBox="0 0 142 38" fill="none" xmlns="http://www.w3.org/2000/svg">
<path d="M104.55 18.6C104.55 14.9333 105.266 11.7 106.7 8.9C108.133 6.1 110.216 3.91667 112.95 2.35C115.683 0.783333 119 0 122.9 0C126.766 0 130.066 0.783333 132.8 2.35C135.566 3.91667 137.666 6.1 139.1 8.9C140.533 11.7 141.25 14.9333 141.25 18.6C141.25 22.2667 140.533 25.5 139.1 28.3C137.666 31.1 135.566 33.2833 132.8 34.85C130.066 36.4167 126.766 37.2 122.9 37.2C119 37.2 115.683 36.4333 112.95 34.9C110.216 33.3333 108.133 31.15 106.7 28.35C105.266 25.55 104.55 22.3 104.55 18.6ZM113.6 18.6C113.6 20.7667 113.933 22.7 114.6 24.4C115.3 26.0667 116.333 27.3667 117.7 28.3C119.1 29.2333 120.833 29.7 122.9 29.7C124.966 29.7 126.683 29.2333 128.05 28.3C129.416 27.3667 130.433 26.0667 131.1 24.4C131.8 22.7 132.15 20.7667 132.15 18.6C132.15 16.4333 131.8 14.5167 131.1 12.85C130.433 11.15 129.416 9.83333 128.05 8.9C126.683 7.96667 124.966 7.5 122.9 7.5C120.833 7.5 119.1 7.96667 117.7 8.9C116.333 9.83333 115.3 11.15 114.6 12.85C113.933 14.5167 113.6 16.4333 113.6 18.6Z" fill="white"/>
<path d="M79.3457 36.5996V0.599609H88.2457V28.8996H101.946V36.5996H79.3457Z" fill="white"/>
<path d="M41.5527 36.5992L45.5527 12.9992C45.9861 10.3992 46.6861 8.26589 47.6527 6.59922C48.6194 4.93255 49.8194 3.63255 51.2527 2.69922C52.7194 1.76589 54.4361 1.11589 56.4027 0.749221C58.3694 0.382553 60.5694 0.199219 63.0027 0.199219C64.4027 0.199219 65.9194 0.282552 67.5527 0.449219C69.1861 0.615885 70.6694 0.849218 72.0027 1.14922L72.1027 1.74922C71.9694 2.34922 71.8694 3.14922 71.8027 4.14922C71.7694 5.14922 71.7361 6.16589 71.7027 7.19922C71.7027 8.23255 71.7027 9.08255 71.7027 9.74922V36.5992H62.8527V10.6492C62.8527 9.68255 62.8861 8.79922 62.9527 7.99922C63.0527 7.16589 63.1694 6.41589 63.3027 5.74922L64.4527 7.89922C64.0861 7.79922 63.5861 7.73255 62.9527 7.69922C62.3527 7.63255 61.7861 7.59922 61.2527 7.59922C59.6861 7.59922 58.4361 7.81589 57.5027 8.24922C56.5694 8.64922 55.8527 9.26589 55.3527 10.0992C54.8861 10.9326 54.5361 11.9992 54.3027 13.2992L50.4527 36.5992H41.5527ZM47.9527 27.3992V20.2992H66.9527V27.3992H47.9527Z" fill="white"/>
<path d="M0 36.5996V0.599609H7.5L19.95 21.0496L16.3 21.0996L28.55 0.599609H36.05V36.5996H27.2V13.3496L29 13.8496L20.15 28.5496H15.9L7.05 14.0496L8.9 13.5496V36.5996H0Z" fill="white"/>
</svg>
