<svg width="84" height="84" viewBox="0 0 84 84" fill="none" xmlns="http://www.w3.org/2000/svg">
<path d="M17.5 73.5C15.575 73.5 13.9277 72.8152 12.558 71.4455C11.1883 70.0758 10.5023 68.4273 10.5 66.5V17.5C10.5 15.575 11.186 13.9277 12.558 12.558C13.93 11.1883 15.5773 10.5023 17.5 10.5H66.5C68.425 10.5 70.0735 11.186 71.4455 12.558C72.8175 13.93 73.5023 15.5773 73.5 17.5V66.5C73.5 68.425 72.8152 70.0735 71.4455 71.4455C70.0758 72.8175 68.4273 73.5023 66.5 73.5H17.5ZM17.5 66.5H66.5V17.5H17.5V66.5ZM24.5 59.5H59.5C60.2 59.5 60.725 59.1792 61.075 58.5375C61.425 57.8958 61.3667 57.2833 60.9 56.7L51.275 43.8375C50.925 43.3708 50.4583 43.1375 49.875 43.1375C49.2917 43.1375 48.825 43.3708 48.475 43.8375L39.375 56L32.9 47.3375C32.55 46.8708 32.0833 46.6375 31.5 46.6375C30.9167 46.6375 30.45 46.8708 30.1 47.3375L23.1 56.7C22.6333 57.2833 22.575 57.8958 22.925 58.5375C23.275 59.1792 23.8 59.5 24.5 59.5Z" fill="white"/>
</svg>
