<svg width="28" height="28" viewBox="0 0 28 28" fill="none" xmlns="http://www.w3.org/2000/svg">
<path d="M19.833 11.9577H19.5413V9.33268C19.5413 7.86294 18.9575 6.4534 17.9182 5.41413C16.879 4.37487 15.4694 3.79102 13.9997 3.79102C12.5299 3.79102 11.1204 4.37487 10.0811 5.41413C9.04186 6.4534 8.45801 7.86294 8.45801 9.33268V11.9577H8.16634C7.31544 11.9577 6.49939 12.2957 5.89771 12.8974C5.29603 13.4991 4.95801 14.3151 4.95801 15.166V20.9993C4.95801 21.8503 5.29603 22.6663 5.89771 23.268C6.49939 23.8697 7.31544 24.2077 8.16634 24.2077H19.833C20.6839 24.2077 21.5 23.8697 22.1016 23.268C22.7033 22.6663 23.0413 21.8503 23.0413 20.9993V15.166C23.0413 14.3151 22.7033 13.4991 22.1016 12.8974C21.5 12.2957 20.6839 11.9577 19.833 11.9577ZM10.208 9.33268C10.208 8.32707 10.6075 7.36264 11.3186 6.65157C12.0296 5.94049 12.9941 5.54102 13.9997 5.54102C15.0053 5.54102 15.9697 5.94049 16.6808 6.65157C17.3919 7.36264 17.7913 8.32707 17.7913 9.33268V11.9577H10.208V9.33268ZM21.2913 20.9993C21.2913 21.3861 21.1377 21.7571 20.8642 22.0305C20.5907 22.304 20.2198 22.4577 19.833 22.4577H8.16634C7.77957 22.4577 7.40863 22.304 7.13514 22.0305C6.86165 21.7571 6.70801 21.3861 6.70801 20.9993V15.166C6.70801 14.7792 6.86165 14.4083 7.13514 14.1348C7.40863 13.8613 7.77957 13.7077 8.16634 13.7077H19.833C20.2198 13.7077 20.5907 13.8613 20.8642 14.1348C21.1377 14.4083 21.2913 14.7792 21.2913 15.166V20.9993Z" fill="#4192FF"/>
</svg>
