<svg width="35" height="35" viewBox="0 0 35 35" fill="none" xmlns="http://www.w3.org/2000/svg">
<path d="M17.4996 29.4016C10.9196 29.4016 5.59961 24.0816 5.59961 17.5016C5.59961 10.9216 10.9196 5.60156 17.4996 5.60156C24.0796 5.60156 29.3996 10.9216 29.3996 17.5016C29.3996 24.0816 24.0796 29.4016 17.4996 29.4016ZM17.4996 7.00156C11.6896 7.00156 6.99961 11.6916 6.99961 17.5016C6.99961 23.3116 11.6896 28.0016 17.4996 28.0016C23.3096 28.0016 27.9996 23.3116 27.9996 17.5016C27.9996 11.6916 23.3096 7.00156 17.4996 7.00156Z" fill="#3E3E3E" stroke="#3E3E3E"/>
<path d="M13.1711 13.1716C13.6003 12.7425 14.2962 12.7425 14.7253 13.1716L22.0398 20.4861C22.469 20.9153 22.469 21.6111 22.0398 22.0403C21.6106 22.4695 20.9148 22.4695 20.4856 22.0403L13.1711 14.7258C12.742 14.2966 12.742 13.6008 13.1711 13.1716Z" fill="#3E3E3E"/>
<path d="M20.537 13.2032C20.9718 12.7685 21.6767 12.7685 22.1114 13.2032C22.5462 13.638 22.5462 14.3429 22.1114 14.7776L14.7763 22.1128C14.3415 22.5475 13.6367 22.5475 13.2019 22.1128C12.7671 21.678 12.7671 20.9731 13.2019 20.5383L20.537 13.2032Z" fill="#3E3E3E"/>
</svg>
