<svg width="25" height="25" viewBox="0 0 25 25" fill="none" xmlns="http://www.w3.org/2000/svg">
<path d="M16.6663 7.29167C16.6663 8.39674 16.2274 9.45654 15.446 10.2379C14.6646 11.0193 13.6047 11.4583 12.4997 11.4583C11.3946 11.4583 10.3348 11.0193 9.5534 10.2379C8.77199 9.45654 8.33301 8.39674 8.33301 7.29167C8.33301 6.1866 8.77199 5.12679 9.5534 4.34539C10.3348 3.56399 11.3946 3.125 12.4997 3.125C13.6047 3.125 14.6646 3.56399 15.446 4.34539C16.2274 5.12679 16.6663 6.1866 16.6663 7.29167Z" stroke="#4192FF" stroke-width="2"/>
<path d="M14.583 14.584H10.4163C9.03501 14.584 7.71025 15.1327 6.73349 16.1095C5.75674 17.0862 5.20801 18.411 5.20801 19.7923C5.20801 20.3449 5.4275 20.8748 5.8182 21.2655C6.2089 21.6562 6.73881 21.8757 7.29134 21.8757H17.708C18.2605 21.8757 18.7904 21.6562 19.1811 21.2655C19.5718 20.8748 19.7913 20.3449 19.7913 19.7923C19.7913 18.411 19.2426 17.0862 18.2659 16.1095C17.2891 15.1327 15.9643 14.584 14.583 14.584Z" stroke="#4192FF" stroke-width="2" stroke-linejoin="round"/>
</svg>
